<svg xmlns="http://www.w3.org/2000/svg" viewBox="0 0 1200 630" role="img" aria-labelledby="title desc">
  <title id="title">Eden Industrial Systems social preview</title>
  <desc id="desc">A social sharing image for Eden Industrial Systems showing the brand mark, manufacturing solutions headline, and technical grid background.</desc>
  <defs>
    <linearGradient id="bg" x1="0" y1="0" x2="1" y2="1">
      <stop offset="0" stop-color="#061a38"/>
      <stop offset="1" stop-color="#082957"/>
    </linearGradient>
    <pattern id="grid" width="42" height="42" patternUnits="userSpaceOnUse">
      <path d="M42 0H0v42" fill="none" stroke="#ffffff" stroke-width="1" opacity="0.08"/>
    </pattern>
  </defs>
  <rect width="1200" height="630" fill="url(#bg)"/>
  <rect width="1200" height="630" fill="url(#grid)"/>
  <circle cx="1040" cy="120" r="210" fill="#2563eb" opacity="0.18"/>
  <circle cx="120" cy="560" r="260" fill="#2563eb" opacity="0.12"/>
  <g transform="translate(86 92)">
    <path d="M0 0h120l-38 76 38 76H0L-32 76z" fill="#ffffff"/>
    <path d="M24 30h72v20H49v16h40v18H49v22h50v20H24z" fill="#063f8f"/>
  </g>
  <g font-family="Arial, Helvetica, sans-serif" fill="#ffffff">
    <text x="86" y="305" font-size="70" font-weight="800">Eden Industrial Systems</text>
    <text x="86" y="386" font-size="38" font-weight="700" fill="#dbe7f6">Manufacturing Solutions, Fixtures and Tooling</text>
    <text x="86" y="464" font-size="28" fill="#9cc2ff">Custom fixtures - workholding - process improvement - mechanical design</text>
  </g>
  <g fill="none" stroke="#9cc2ff" stroke-width="4" stroke-linecap="round" opacity="0.85">
    <path d="M760 470h250"/>
    <path d="M760 470l42-28M760 470l42 28M1010 470l-42-28M1010 470l-42 28"/>
    <path d="M1036 300v148"/>
    <path d="M1036 300l-28 40M1036 300l28 40M1036 448l-28-40M1036 448l28-40"/>
  </g>
</svg>
