<svg xmlns="http://www.w3.org/2000/svg" viewBox="0 0 1200 800" role="img" aria-labelledby="title desc">
  <title id="title">Generic engineering project illustration</title>
  <desc id="desc">A clean technical illustration with fixture-like plates, dimension lines, and a subtle grid background.</desc>
  <defs>
    <linearGradient id="bg" x1="0" y1="0" x2="1" y2="1">
      <stop offset="0" stop-color="#f8fafc"/>
      <stop offset="1" stop-color="#e0e7ff"/>
    </linearGradient>
    <pattern id="grid" width="48" height="48" patternUnits="userSpaceOnUse">
      <path d="M48 0H0v48" fill="none" stroke="#cbd5e1" stroke-width="1" opacity="0.45"/>
    </pattern>
    <filter id="shadow" x="-20%" y="-20%" width="140%" height="140%">
      <feDropShadow dx="0" dy="18" stdDeviation="18" flood-color="#0f172a" flood-opacity="0.16"/>
    </filter>
  </defs>

  <rect width="1200" height="800" fill="url(#bg)"/>
  <rect width="1200" height="800" fill="url(#grid)" opacity="0.75"/>

  <g opacity="0.85" fill="none" stroke="#94a3b8" stroke-width="3">
    <path d="M175 142h850"/>
    <path d="M175 142v516"/>
    <path d="M1025 142v516"/>
    <path d="M175 658h850"/>
    <path d="M220 112l-45 30 45 30"/>
    <path d="M980 112l45 30-45 30"/>
    <path d="M145 190l30-48 30 48"/>
    <path d="M145 610l30 48 30-48"/>
  </g>

  <g filter="url(#shadow)">
    <path d="M335 480l245 95 285-124-252-92z" fill="#1e293b"/>
    <path d="M335 421l245 95 285-124-252-92z" fill="#334155"/>
    <path d="M335 421v59l245 95v-59z" fill="#0f172a"/>
    <path d="M580 516v59l285-124v-59z" fill="#1e293b"/>

    <path d="M438 382l166 64 160-70-170-62z" fill="#2563eb" opacity="0.92"/>
    <path d="M438 382v42l166 64v-42z" fill="#1d4ed8"/>
    <path d="M604 446v42l160-70v-42z" fill="#1e40af"/>

    <circle cx="475" cy="448" r="24" fill="#f8fafc" opacity="0.92"/>
    <circle cx="665" cy="493" r="24" fill="#f8fafc" opacity="0.92"/>
    <circle cx="753" cy="401" r="24" fill="#f8fafc" opacity="0.92"/>
  </g>

  <g fill="none" stroke="#2563eb" stroke-width="4" stroke-linecap="round" opacity="0.85">
    <path d="M304 270h246"/>
    <path d="M304 270l38-24"/>
    <path d="M304 270l38 24"/>
    <path d="M550 270l-38-24"/>
    <path d="M550 270l-38 24"/>
    <path d="M835 286v160"/>
    <path d="M835 286l-24 34"/>
    <path d="M835 286l24 34"/>
    <path d="M835 446l-24-34"/>
    <path d="M835 446l24-34"/>
  </g>

  <g font-family="Arial, Helvetica, sans-serif" fill="#0f172a">
    <text x="600" y="705" text-anchor="middle" font-size="34" font-weight="800">Eden Industrial Systems</text>
    <text x="600" y="746" text-anchor="middle" font-size="22" fill="#475569">Fixture Design • Tooling • Manufacturing Engineering</text>
  </g>
</svg>
