<svg xmlns="http://www.w3.org/2000/svg" viewBox="0 0 1200 800" role="img" aria-labelledby="title desc">
  <title id="title">Manufacturing engineering systems illustration</title>
  <desc id="desc">A CAD-style technical illustration showing fixture plates, drawings, gauges, and production workflow elements.</desc>
  <defs>
    <linearGradient id="bg" x1="0" y1="0" x2="1" y2="1">
      <stop offset="0" stop-color="#f8fafc"/>
      <stop offset="1" stop-color="#dbeafe"/>
    </linearGradient>
    <linearGradient id="steel" x1="0" y1="0" x2="1" y2="1">
      <stop offset="0" stop-color="#475569"/>
      <stop offset="1" stop-color="#0f172a"/>
    </linearGradient>
    <pattern id="grid" width="48" height="48" patternUnits="userSpaceOnUse">
      <path d="M48 0H0v48" fill="none" stroke="#cbd5e1" stroke-width="1" opacity="0.55"/>
    </pattern>
    <filter id="shadow" x="-20%" y="-20%" width="140%" height="140%">
      <feDropShadow dx="0" dy="18" stdDeviation="18" flood-color="#0f172a" flood-opacity="0.16"/>
    </filter>
  </defs>
  <rect width="1200" height="800" fill="url(#bg)"/>
  <rect width="1200" height="800" fill="url(#grid)" opacity="0.8"/>
  <g fill="none" stroke="#94a3b8" stroke-width="2" opacity="0.75">
    <path d="M100 120h310v210H100z"/>
    <path d="M130 170h250M130 215h180M130 260h220"/>
    <path d="M845 110h230v160H845z"/>
    <path d="M875 155h170M875 198h110"/>
    <path d="M160 620h880"/>
  </g>
  <g filter="url(#shadow)">
    <path d="M250 500l330 126 390-165-342-122z" fill="#0f172a"/>
    <path d="M250 430l330 126 390-165-342-122z" fill="url(#steel)"/>
    <path d="M250 430v70l330 126v-70z" fill="#111827"/>
    <path d="M580 556v70l390-165v-70z" fill="#1e293b"/>
    <path d="M390 382l205 78 240-103-212-74z" fill="#2563eb" opacity="0.94"/>
    <path d="M390 382v58l205 78v-58z" fill="#1d4ed8"/>
    <path d="M595 460v58l240-103v-58z" fill="#1e40af"/>
    <g fill="#f8fafc" opacity="0.96">
      <circle cx="455" cy="450" r="24"/>
      <circle cx="615" cy="508" r="24"/>
      <circle cx="760" cy="412" r="24"/>
      <circle cx="604" cy="352" r="18"/>
    </g>
    <g fill="#f97316">
      <path d="M460 318l72 26-72 30-72-26z"/>
      <path d="M720 260l74 26-74 32-76-28z"/>
    </g>
  </g>
  <g fill="none" stroke="#2563eb" stroke-width="5" stroke-linecap="round" opacity="0.9">
    <path d="M230 210h230"/>
    <path d="M230 210l36-24M230 210l36 24M460 210l-36-24M460 210l-36 24"/>
    <path d="M975 305v210"/>
    <path d="M975 305l-26 38M975 305l26 38M975 515l-26-38M975 515l26-38"/>
    <path d="M190 665h820"/>
  </g>
  <g fill="#0f172a" font-family="Arial, Helvetica, sans-serif">
    <text x="600" y="705" text-anchor="middle" font-size="34" font-weight="800">Fixture Design and Production Support</text>
    <text x="600" y="748" text-anchor="middle" font-size="22" fill="#475569">Workholding - Tooling - Process Improvement - Vendor Ready Details</text>
  </g>
</svg>
