<svg xmlns="http://www.w3.org/2000/svg" viewBox="0 0 1200 800" role="img" aria-labelledby="title desc">
  <title id="title">Machining fixture system illustration</title>
  <desc id="desc">A CAD-style machining fixture plate with locating pins, clamps, datum arrows, and workholding details.</desc>
  <defs>
    <linearGradient id="bg" x1="0" y1="0" x2="1" y2="1"><stop offset="0" stop-color="#f8fafc"/><stop offset="1" stop-color="#e0e7ff"/></linearGradient>
    <pattern id="grid" width="44" height="44" patternUnits="userSpaceOnUse"><path d="M44 0H0v44" fill="none" stroke="#cbd5e1" stroke-width="1" opacity="0.55"/></pattern>
    <filter id="shadow" x="-20%" y="-20%" width="140%" height="140%"><feDropShadow dx="0" dy="16" stdDeviation="15" flood-color="#0f172a" flood-opacity="0.17"/></filter>
  </defs>
  <rect width="1200" height="800" fill="url(#bg)"/>
  <rect width="1200" height="800" fill="url(#grid)" opacity="0.75"/>
  <g fill="none" stroke="#94a3b8" stroke-width="3" opacity="0.85">
    <path d="M180 136h840v500H180z"/>
    <path d="M220 108l-40 28 40 28M980 108l40 28-40 28"/>
    <path d="M145 180l35-44 35 44M145 592l35 44 35-44"/>
  </g>
  <g filter="url(#shadow)">
    <path d="M250 505l350 132 360-150-360-128z" fill="#0f172a"/>
    <path d="M250 435l350 132 360-150-360-128z" fill="#334155"/>
    <path d="M250 435v70l350 132v-70z" fill="#111827"/>
    <path d="M600 567v70l360-150v-70z" fill="#1e293b"/>
    <path d="M360 403l230 86 250-105-234-84z" fill="#2563eb"/>
    <path d="M360 403v50l230 86v-50z" fill="#1d4ed8"/>
    <path d="M590 489v50l250-105v-50z" fill="#1e40af"/>
    <g fill="#f8fafc">
      <circle cx="425" cy="455" r="22"/><circle cx="545" cy="498" r="22"/><circle cx="725" cy="424" r="22"/><circle cx="615" cy="360" r="22"/>
    </g>
    <g fill="#f97316">
      <path d="M420 348l74 28-74 30-74-28z"/>
      <path d="M760 335l78 28-78 34-78-30z"/>
    </g>
  </g>
  <g fill="none" stroke="#2563eb" stroke-width="5" stroke-linecap="round" opacity="0.9">
    <path d="M295 260h270"/><path d="M295 260l40-24M295 260l40 24M565 260l-40-24M565 260l-40 24"/>
    <path d="M910 300v210"/><path d="M910 300l-25 36M910 300l25 36M910 510l-25-36M910 510l25-36"/>
  </g>
  <g fill="#0f172a" font-family="Arial, Helvetica, sans-serif">
    <text x="600" y="705" text-anchor="middle" font-size="34" font-weight="800">Machining Fixture System</text>
    <text x="600" y="744" text-anchor="middle" font-size="22" fill="#475569">Positive location - repeatable mounting - accessible clamping</text>
  </g>
</svg>
